<?xml version="1.0" encoding="utf-8"?>
<!-- Generator: Adobe Illustrator 24.1.3, SVG Export Plug-In . SVG Version: 6.00 Build 0)  -->
<svg version="1.1" id="Ebene_1" xmlns="http://www.w3.org/2000/svg" xmlns:xlink="http://www.w3.org/1999/xlink" x="0px" y="0px"
	 width="100px" height="120px" viewBox="0 0 100 120" enable-background="new 0 0 100 120" xml:space="preserve">
<g id="STANDARD">
	<path id="STANDARD_2_" fill="#BEC8D2" d="M93.7,102.5L50,120L6.3,102.5C2.5,101,0,97.3,0,93.2V10C0,4.5,4.5,0,10,0h80
		c5.5,0,10,4.5,10,10v83.2C100,97.3,97.5,101,93.7,102.5z"/>
	
		<radialGradient id="LIGHTNING_1_" cx="50" cy="-51.0197" r="50" gradientTransform="matrix(1 0 0 1.16 0 117.1829)" gradientUnits="userSpaceOnUse">
		<stop  offset="0" style="stop-color:#FFFFFF"/>
		<stop  offset="1" style="stop-color:#FFFFFF;stop-opacity:0"/>
	</radialGradient>
	<ellipse id="LIGHTNING_2_" fill="url(#LIGHTNING_1_)" cx="50" cy="58" rx="50" ry="58"/>
</g>
<g id="TYPO_NEW">
	<g>
		<path fill="#190A2D" d="M23.4,65.7l1.7-1c0.4,0.9,1.1,1.5,2.3,1.5c1.2,0,1.6-0.5,1.6-1.1c0-0.7-0.7-1-2.2-1.5c-1.5-0.4-3-1.1-3-3
			c0-1.9,1.6-3,3.3-3c1.6,0,2.9,0.8,3.6,2.2l-1.7,1c-0.4-0.8-0.9-1.3-1.9-1.3c-0.8,0-1.3,0.4-1.3,1c0,0.6,0.4,0.9,1.9,1.4
			c1.6,0.5,3.3,1,3.3,3.1c0,1.9-1.5,3-3.6,3C25.3,68.2,24,67.2,23.4,65.7z"/>
		<path fill="#190A2D" d="M39.3,66.1V68h-6.2V58h6.1v1.9h-4.1V62h3.8v1.9h-3.8v2.2H39.3z"/>
		<path fill="#190A2D" d="M49.4,58v10h-1.5l-4.3-6.1V68h-2V58h1.5l4.3,6.1V58H49.4z"/>
		<path fill="#190A2D" d="M54.1,58v10h-2V58H54.1z"/>
		<path fill="#190A2D" d="M56.2,63c0-2.9,2.3-5.2,5.2-5.2s5.2,2.3,5.2,5.2c0,2.9-2.3,5.2-5.2,5.2S56.2,65.9,56.2,63z M64.6,63
			c0-1.9-1.4-3.3-3.2-3.3s-3.2,1.4-3.2,3.3c0,1.9,1.4,3.3,3.2,3.3S64.6,64.9,64.6,63z"/>
		<path fill="#190A2D" d="M72.2,64.5h-1.5V68h-2V58h4c1.8,0,3.3,1.5,3.3,3.3c0,1.3-0.8,2.4-1.9,2.9l2.2,3.8h-2.1L72.2,64.5z
			 M70.7,62.8h2c0.7,0,1.4-0.7,1.4-1.5c0-0.8-0.6-1.5-1.4-1.5h-2V62.8z"/>
		<path fill="#190A2D" d="M17.7,77c0,2.8-2.1,5-4.8,5h-4V72h4C15.7,72,17.7,74.2,17.7,77z M15.8,77c0-1.8-1.2-3.1-2.9-3.1h-2v6.2h2
			C14.6,80.1,15.8,78.8,15.8,77z"/>
		<path fill="#190A2D" d="M26.1,80.1V82h-6.2V72H26v1.9h-4.1V76h3.8v1.9h-3.8v2.2H26.1z"/>
		<path fill="#190A2D" d="M27.5,72h2.1l2.4,7.7l2.4-7.7h2.2l-3.4,10h-2.4L27.5,72z"/>
		<path fill="#190A2D" d="M44.5,80.1V82h-6.2V72h6.1v1.9h-4.1V76h3.8v1.9h-3.8v2.2H44.5z"/>
		<path fill="#190A2D" d="M52.6,80.1V82h-5.8V72h2v8.1H52.6z"/>
		<path fill="#190A2D" d="M53.7,77c0-2.9,2.3-5.2,5.2-5.2c2.9,0,5.2,2.3,5.2,5.2c0,2.9-2.3,5.2-5.2,5.2C56,82.2,53.7,79.9,53.7,77z
			 M62.1,77c0-1.9-1.4-3.3-3.2-3.3c-1.8,0-3.2,1.4-3.2,3.3c0,1.9,1.4,3.3,3.2,3.3C60.7,80.3,62.1,78.9,62.1,77z"/>
		<path fill="#190A2D" d="M73.4,75.4c0,1.9-1.5,3.4-3.4,3.4h-1.8V82h-2V72H70C71.9,72,73.4,73.5,73.4,75.4z M71.4,75.4
			c0-0.9-0.6-1.5-1.5-1.5h-1.8v3H70C70.8,76.9,71.4,76.2,71.4,75.4z"/>
		<path fill="#190A2D" d="M81.4,80.1V82h-6.2V72h6.1v1.9h-4.1V76H81v1.9h-3.8v2.2H81.4z"/>
		<path fill="#190A2D" d="M87.3,78.5h-1.5V82h-2V72h4c1.8,0,3.3,1.5,3.3,3.3c0,1.3-0.8,2.4-1.9,2.9l2.2,3.8h-2.1L87.3,78.5z
			 M85.8,76.8h2c0.7,0,1.4-0.7,1.4-1.5s-0.6-1.5-1.4-1.5h-2V76.8z"/>
	</g>
	<g>
		<path fill="#6428B4" d="M21.2,46c0-2.3,1.7-4.1,4.2-4.1c1.5,0,2.8,0.8,3.4,1.9l-0.9,0.5c-0.5-0.9-1.4-1.4-2.5-1.4
			c-1.9,0-3.1,1.4-3.1,3.1c0,1.7,1.3,3.1,3.1,3.1c1.1,0,2.1-0.6,2.5-1.4l0.9,0.5c-0.7,1.2-2,1.9-3.4,1.9
			C22.9,50.1,21.2,48.3,21.2,46z"/>
		<path fill="#6428B4" d="M35.3,49v1h-4.8v-8h4.7v1h-3.6v2.5H35v1h-3.4V49H35.3z"/>
		<path fill="#6428B4" d="M40.1,46.9h-1.9V50h-1.1v-8h3.2c1.4,0,2.5,1.1,2.5,2.5c0,1-0.7,2-1.7,2.3l1.9,3.2h-1.2L40.1,46.9z
			 M38.2,46h2.1c0.8,0,1.4-0.7,1.4-1.5S41.2,43,40.4,43h-2.1V46z"/>
		<path fill="#6428B4" d="M49.6,43h-2.4v7h-1v-7h-2.3v-1h5.8V43z"/>
		<path fill="#6428B4" d="M52.3,42v8h-1.1v-8H52.3z"/>
		<path fill="#6428B4" d="M55.7,43v2.6h3.4v1h-3.4V50h-1.1v-8h4.6v1H55.7z"/>
		<path fill="#6428B4" d="M62.1,42v8h-1.1v-8H62.1z"/>
		<path fill="#6428B4" d="M69.2,49v1h-4.8v-8h4.7v1h-3.6v2.5h3.4v1h-3.4V49H69.2z"/>
		<path fill="#6428B4" d="M77.9,46c0,2.2-1.6,4-3.8,4H71v-8h3.1C76.3,42,77.9,43.8,77.9,46z M76.9,46c0-1.7-1.1-3-2.8-3h-2.1v6h2.1
			C75.8,49,76.9,47.7,76.9,46z"/>
	</g>
</g>
<g id="PIMCORE_1_">
	<path id="BG" fill="#6428B4" d="M100,34H0V6c0-3.3,2.7-6,6-6h88c3.3,0,6,2.7,6,6V34z"/>
	<path id="PIMCORE" fill="#FFFFFF" d="M86.5,14h-4.2c-0.1,0-0.3,0.1-0.3,0.3V16h6v0.5c0,0.8-0.7,1.5-1.5,1.5H82v1.7
		c0,0.1,0.1,0.3,0.3,0.3H88v0.5c0,0.8-0.7,1.5-1.5,1.5h-5c-0.8,0-1.5-0.7-1.5-1.5v-7c0-0.8,0.7-1.5,1.5-1.5H88v0.5
		C88,13.3,87.3,14,86.5,14z M76.1,18.6L78,22h-1.7c-0.4,0-0.7-0.2-0.9-0.5L74,19h-4v1.5c0,0.8-0.7,1.5-1.5,1.5H68v-8.5
		c0-0.8,0.7-1.5,1.5-1.5h4.9c1.9,0,3.6,1.5,3.6,3.5C78,16.8,77.2,18.1,76.1,18.6z M70,14.3V17h4.5c0.9,0,1.5-0.7,1.5-1.6
		c0-0.8-0.7-1.4-1.5-1.4l-4.2,0C70.1,14,70,14.1,70,14.3z M37.6,12.4l-3.4,3.4c-0.1,0.1-0.3,0.1-0.4,0l-3.4-3.4
		c-0.3-0.3-0.6-0.4-1-0.4h0c-0.8,0-1.4,0.6-1.4,1.4V22h0.5c0.8,0,1.5-0.7,1.5-1.5v-5.4c0-0.1,0.1-0.2,0.2-0.1l2.7,2.7
		c0.6,0.6,1.5,0.6,2.1,0l2.7-2.7c0.1-0.1,0.2,0,0.2,0.1V22h0.5c0.8,0,1.5-0.7,1.5-1.5v-7.1c0-0.8-0.6-1.4-1.4-1.4h0
		C38.2,12,37.9,12.1,37.6,12.4z M26,21v-9l-1,0c-0.6,0-1,0.4-1,1v9h1C25.6,22,26,21.6,26,21z M22,15.6c0,1.9-1.6,3.4-3.5,3.4H14v1.5
		c0,0.8-0.7,1.5-1.5,1.5H12v-8.5c0-0.8,0.7-1.5,1.5-1.5h4.9C20.4,12,22,13.6,22,15.6z M20,15.6c0-0.9-0.6-1.6-1.5-1.6h-4.2
		c-0.2,0-0.3,0.1-0.3,0.3V17h4.5C19.3,17,20,16.4,20,15.6z M66,17c0,2.8-2.2,5-5,5c-1.7,0-3.3-0.9-4.2-2.2l-0.6-1l-1.4,2.1
		C53.6,22.8,51.4,24,49,24c-3.9,0-7-3.1-7-7c0-3.9,3.1-7,7-7c2.4,0,4.6,1.2,5.8,3.1l0.2,0.3l-1.2,1.8l-0.7-1
		C52.2,12.9,50.7,12,49,12c-2.8,0-5,2.2-5,5s2.2,5,5,5c1.7,0,3.3-0.9,4.2-2.2l3.7-5.5c0.9-1.4,2.4-2.2,4.2-2.2
		C63.8,12,66,14.2,66,17z M64,17c0-1.7-1.3-3-3-3c-1,0-2,0.5-2.5,1.3L57.4,17l1.1,1.6C59,19.5,60,20,61,20C62.7,20,64,18.7,64,17z
		 M91.3,13.2l0.2,0.3h-0.2c0,0,0,0,0,0l-0.2-0.3h-0.4v0.2c0,0.1,0,0.1-0.1,0.1h-0.1v-0.8c0-0.1,0.1-0.1,0.1-0.1h0.5
		c0.2,0,0.3,0.1,0.3,0.3C91.5,13,91.4,13.1,91.3,13.2z M90.7,12.7V13h0.4c0.1,0,0.2-0.1,0.1-0.2c0-0.1-0.1-0.1-0.1-0.1L90.7,12.7
		C90.7,12.7,90.7,12.7,90.7,12.7z M91,12.2c-0.4,0-0.8,0.4-0.8,0.8c0,0.4,0.4,0.8,0.8,0.8s0.8-0.4,0.8-0.8
		C91.8,12.6,91.4,12.2,91,12.2 M91,12c0.6,0,1,0.4,1,1s-0.4,1-1,1s-1-0.4-1-1S90.4,12,91,12L91,12z"/>
</g>
<g>
	<polygon fill="#28A050" points="70,90 30,90 30,112 50,120 70,112 	"/>
	<path fill="#FFFFFF" d="M50,96c1.1,0,2,0.9,2,2s-0.9,2-2,2c-1.1,0-2-0.9-2-2S48.9,96,50,96 M50,105c2.7,0,5.8,1.3,6,2v1H44v-1
		C44.2,106.3,47.3,105,50,105 M50,94c-2.2,0-4,1.8-4,4s1.8,4,4,4s4-1.8,4-4S52.2,94,50,94z M50,103c-2.7,0-8,1.3-8,4v3h16v-3
		C58,104.3,52.7,103,50,103z"/>
</g>
<g>
</g>
<g>
</g>
<g>
</g>
<g>
</g>
<g>
</g>
<g>
</g>
</svg>
